<svg xmlns="http://www.w3.org/2000/svg" width="31" height="40" viewBox="0 0 31 40">
  <g fill="#06BA2E" fill-rule="evenodd">
    <path d="M27.1496,35.2149 C27.1526,35.2139 27.1666,35.2109 27.1716,35.2019 C27.2356,35.1179 27.2976,35.0329 27.3596,34.9479 C27.9526,34.1249 28.4936,33.2709 28.9556,32.3669 C29.6586,30.9939 30.1976,29.5689 30.3216,28.0119 C30.3756,27.3299 30.3376,26.6559 30.1776,25.9909 C29.9186,24.9129 29.3766,23.9919 28.5606,23.2509 C28.0206,22.7599 27.4386,22.3139 26.8616,21.8639 C25.3366,20.6789 23.7866,19.5269 22.1696,18.4679 C22.1126,18.4309 22.0516,18.3979 22.0006,18.3659 C21.9746,18.3849 21.9626,18.3899 21.9576,18.3989 C21.9336,18.4329 21.9126,18.4679 21.8916,18.5029 C21.4376,19.2969 21.2596,20.1599 21.2686,21.0639 C21.2746,21.6079 21.3386,22.1489 21.4546,22.6819 C21.7836,24.1989 22.3836,25.6099 23.1686,26.9439 C23.2246,27.0399 23.3196,27.1209 23.4106,27.1899 C24.5236,28.0259 25.4516,29.0269 26.1626,30.2269 C26.8616,31.4059 27.2356,32.6749 27.2136,34.0499 C27.2086,34.4399 27.1716,34.8289 27.1496,35.2149"/>
    <path d="M24.3147 9.9014C24.2617 9.9234 24.2237 9.9374 24.1887 9.9554 22.5827 10.7904 21.0217 11.7004 19.5547 12.7634 18.5047 13.5244 17.5127 14.3514 16.6577 15.3324 16.1017 15.9714 15.6247 16.6614 15.3077 17.4544 15.0397 18.1254 14.9427 18.8214 15.0167 19.5364 15.0987 20.3314 15.3987 21.0514 15.8317 21.7184 16.4467 22.6684 17.2487 23.4424 18.1357 24.1314 19.3667 25.0884 20.7127 25.8524 22.1227 26.5084 22.1677 26.5304 22.2127 26.5474 22.2857 26.5774 22.2557 26.5184 22.2417 26.4884 22.2267 26.4584 21.4427 24.9014 20.8357 23.2904 20.7057 21.5314 20.6657 20.9974 20.6827 20.4674 20.7717 19.9404 20.9557 18.8394 21.4657 17.8994 22.2077 17.0784 23.0097 16.1904 23.9717 15.5134 25.0437 14.9874 25.1427 14.9394 25.2147 14.8784 25.2627 14.7754 25.4747 14.3254 25.5997 13.8524 25.6317 13.3584 25.6867 12.5264 25.5017 11.7434 25.1057 11.0104 24.8897 10.6134 24.6297 10.2474 24.3147 9.9014M12.3728 32.9639C12.3898 32.9989 12.4028 33.0299 12.4198 33.0609 13.5168 35.0439 14.8748 36.8189 16.5968 38.3049 17.3028 38.9129 18.0518 39.4629 18.8708 39.9139 18.9748 39.9719 19.0798 40.0149 19.2038 39.9949 19.3818 39.9669 19.5628 39.9479 19.7408 39.9169 20.8698 39.7169 21.9518 39.3729 22.9878 38.8799 24.2538 38.2769 25.3458 37.4529 26.2418 36.3719 26.3018 36.2989 26.3478 36.2039 26.3718 36.1109 26.5838 35.2719 26.6608 34.4169 26.6138 33.5539 26.5768 32.8789 26.4448 32.2229 26.1858 31.5929 25.6648 30.3259 24.8728 29.2519 23.8718 28.3259 23.8298 28.2879 23.7828 28.2549 23.7258 28.2099 23.6938 28.2899 23.6678 28.3549 23.6418 28.4189 23.4498 28.9039 23.2148 29.3679 22.9218 29.8009 22.1758 30.9019 21.2018 31.7189 19.9498 32.1919 19.0508 32.5309 18.1158 32.6999 17.1668 32.8079 16.6848 32.8619 16.2008 32.9059 15.7168 32.9239 14.9628 32.9509 14.2078 32.9539 13.4548 32.9629 13.0988 32.9679 12.7428 32.9639 12.3728 32.9639"/>
    <path d="M14.1779,4.3457 C14.2949,4.3787 14.3729,4.4007 14.4509,4.4217 C16.4319,4.9657 18.3819,5.6007 20.2529,6.4597 C21.4679,7.0177 22.6369,7.6577 23.6839,8.4997 C24.3729,9.0537 24.9829,9.6817 25.4479,10.4387 C26.1169,11.5277 26.3789,12.6987 26.1379,13.9677 C26.1149,14.0907 26.0839,14.2137 26.0519,14.3577 C26.0959,14.3347 26.1169,14.3247 26.1359,14.3127 C26.9979,13.7437 27.8079,13.1097 28.5329,12.3727 C29.2629,11.6337 29.8879,10.8207 30.2949,9.8567 C30.7539,8.7697 30.8269,7.6627 30.4489,6.5357 C30.1829,5.7477 29.7439,5.0597 29.2079,4.4317 C28.4459,3.5397 27.5539,2.7957 26.5769,2.1497 C24.3459,0.6707 21.8819,-0.0173 19.2139,0.0007 C19.1199,0.0007 19.0159,0.0317 18.9349,0.0797 C18.6619,0.2397 18.3939,0.4057 18.1339,0.5857 C16.8499,1.4727 15.7179,2.5257 14.7049,3.7107 C14.5339,3.9097 14.3689,4.1147 14.1779,4.3457"/>
    <path d="M17.8176,0.0816 C17.7716,0.0816 17.7496,0.0796 17.7276,0.0816 C16.8096,0.1846 15.8986,0.3306 14.9966,0.5336 C12.9596,0.9936 11.0146,1.6976 9.1896,2.7206 C7.4116,3.7156 5.8366,4.9616 4.5036,6.5086 C2.7926,8.4926 1.6386,10.7696 0.9206,13.2786 C0.5556,14.5516 0.3016,15.8466 0.1776,17.1646 C0.1056,17.9276 0.0386,18.6916 0.0156,19.4566 C-0.0234,20.7556 0.0086,22.0536 0.1416,23.3476 C0.2486,24.3846 0.4056,25.4116 0.6416,26.4256 C1.0886,28.3486 1.7876,30.1696 2.8216,31.8566 C3.7516,33.3726 4.9036,34.6936 6.2846,35.8146 C7.5886,36.8726 9.0276,37.7046 10.5766,38.3496 C11.7456,38.8376 12.9496,39.2106 14.1856,39.4836 C15.0946,39.6836 16.0116,39.8276 16.9376,39.9206 C17.2236,39.9496 17.5126,39.9626 17.8066,39.9846 C17.7996,39.9616 17.7996,39.9556 17.7966,39.9526 C17.7016,39.8856 17.6046,39.8196 17.5086,39.7516 C15.5936,38.4116 14.0466,36.7186 12.7676,34.7726 C11.7596,33.2406 10.9786,31.5946 10.3706,29.8666 C9.8666,28.4346 9.4906,26.9676 9.2456,25.4716 C9.1066,24.6186 9.0046,23.7586 8.9186,22.8986 C8.8466,22.1776 8.7976,21.4526 8.7846,20.7276 C8.7686,19.8326 8.7876,18.9366 8.8136,18.0426 C8.8286,17.4936 8.8716,16.9446 8.9276,16.3976 C9.0206,15.4906 9.1566,14.5896 9.3386,13.6946 C9.6496,12.1726 10.0886,10.6896 10.6766,9.2516 C11.3886,7.5096 12.2966,5.8796 13.4276,4.3736 C14.4906,2.9566 15.7076,1.6896 17.1126,0.6076 C17.3386,0.4346 17.5696,0.2666 17.8176,0.0816"/>
  </g>
</svg>
