<svg xmlns="http://www.w3.org/2000/svg" viewBox="0 0 130 120" width="130" height="120">
  <style>
    .text {
      font-family: Menlo, Verdana, monspace;
    }
  </style>
  <g stroke-width="5" fill="none" transform="translate(60,60)">
    <ellipse rx="55" ry="21" stroke="#6699A1" />
    <ellipse rx="55" ry="21" transform="rotate(60)" stroke="#A3EDBA" />
    <ellipse rx="55" ry="21" transform="rotate(120)" stroke="#8087E8" />
  </g>
  <g transform="translate(48, 49) scale(0.35)" stroke-width="0">
    <polygon fill="#8087E8" points="41.53900146484375,0 30.315000534057617,26.209999084472656 15.566999435424805,60.650997161865234 49.85900115966797,46.16499710083008 68.02299499511719,38.49300003051758" />
    <polygon fill="#30426B" points="47.25799560546875,31.729999542236328 49.86000061035156,46.16499710083008 68.02400207519531,38.49300003051758" />
    <polygon fill="#6699A1" points="41.53900146484375,0 47.25799560546875,31.730998992919922 68.02299499511719,38.49300003051758" />
    <polygon fill="#78758C" points="47.25799560546875,31.729999542236328 68.02400207519531,38.49300003051758 30.31599998474121,26.208999633789062 15.566999435424805,60.650997161865234 49.86000061035156,46.16499710083008" />
    <polygon fill="#A3EDBA" points="15.566999435424805,60.650997161865234 30.315000534057617,26.209999084472656 0,16.334999084472656" />
    <polygon fill="#6699A1" points="49.86000061035156,46.16499710083008 53.185997009277344,64.6099967956543 68.02400207519531,38.49300003051758" />
    <polygon fill="#8087E8" points="41.53900146484375,0 30.315000534057617,26.209999084472656 47.25799560546875,31.730998992919922" />
  </g>
  <g stroke="#fff" stroke-width="1.5">
    <circle r="10" cx="35" cy="11" fill="#A3EDBA" />
    <circle r="10" cx="115" cy="60" fill="#6699A1" />
    <circle r="10" cx="33" cy="108" fill="#8087E8" />
  </g>
  <g fill="#fff" font-size="16">
    <text x="30.5" y="17" class="text">J</text>
    <text x="110.5" y="66" class="text">S</text>
    <text x="28.5" y="114" class="text">X</text>
  </g>
</svg>
